HIERARCHY
ROOT Hips
{
	OFFSET -3.958830 18.904000 13.208200
	CHANNELS 6 Xposition Yposition Zposition Zrotation Yrotation Xrotation 
	JOINT LHipJoint
	{
		OFFSET 0.000000 0.000000 0.000000
		CHANNELS 3 Zrotation Yrotation Xrotation
		JOINT LeftUpLeg
		{
			OFFSET 1.800000 -1.400000 0.085000
			CHANNELS 3 Zrotation Yrotation Xrotation
			JOINT LeftLeg
			{
				OFFSET 2.215000 -6.000000 0.000000
				CHANNELS 3 Zrotation Yrotation Xrotation
				JOINT LeftFoot
				{
					OFFSET 2.500000 -6.900000 0.000000
					CHANNELS 3 Zrotation Yrotation Xrotation
					JOINT LeftToeBase
					{
						OFFSET 0.200000 -0.500000 1.950000
						CHANNELS 3 Zrotation Yrotation Xrotation
						End Site
						{
							OFFSET 0.000000 0.000000 0.000000
						}
					}
				}
			}
		}
	}
	JOINT RHipJoint
	{
		OFFSET 0.000000 0.000000 0.000000
		CHANNELS 3 Zrotation Yrotation Xrotation
		JOINT RightUpLeg
		{
			OFFSET -1.800000 -1.400000 0.085000
			CHANNELS 3 Zrotation Yrotation Xrotation
			JOINT RightLeg
			{
				OFFSET -2.215000 -6.000000 0.000000
				CHANNELS 3 Zrotation Yrotation Xrotation
				JOINT RightFoot
				{
					OFFSET -2.500000 -6.900000 0.000000
					CHANNELS 3 Zrotation Yrotation Xrotation
					JOINT RightToeBase
					{
						OFFSET -0.200000 -0.500000 1.950000
						CHANNELS 3 Zrotation Yrotation Xrotation
						End Site
						{
							OFFSET 0.000000 0.000000 0.000000
						}
					}
				}
			}
		}
	}
	JOINT LowerBack
	{
		OFFSET 0.000000 0.000000 0.000000
		CHANNELS 3 Zrotation Yrotation Xrotation
		JOINT Spine
		{
			OFFSET -0.087000 1.940000 -0.288900
			CHANNELS 3 Zrotation Yrotation Xrotation
			JOINT Spine1
			{
				OFFSET 0.000000 1.950000 0.060000
				CHANNELS 3 Zrotation Yrotation Xrotation
				JOINT Neck
				{
					OFFSET 0.000000 0.000000 0.000000
					CHANNELS 3 Zrotation Yrotation Xrotation
					JOINT Neck1
					{
						OFFSET 0.000000 1.600000 0.340000
						CHANNELS 3 Zrotation Yrotation Xrotation
						JOINT Head
						{
							OFFSET 0.000000 1.667000 -0.240000
							CHANNELS 3 Zrotation Yrotation Xrotation
							End Site
							{
								OFFSET 0.000000 0.000000 0.000000
							}
						}
					}
				}
				JOINT LeftShoulder
				{
					OFFSET 0.000000 0.000000 0.000000
					CHANNELS 3 Zrotation Yrotation Xrotation
					JOINT LeftArm
					{
						OFFSET 2.700000 1.550000 -0.730000
						CHANNELS 3 Zrotation Yrotation Xrotation
						JOINT LeftForeArm
						{
							OFFSET 5.450000 0.000000 0.000000
							CHANNELS 3 Zrotation Yrotation Xrotation
							JOINT LeftHand
							{
								OFFSET 3.450000 0.000000 0.000000
								CHANNELS 3 Zrotation Yrotation Xrotation
								JOINT LeftHandIndex1
								{
									OFFSET 0.750000 0.000000 0.000000
									CHANNELS 3 Zrotation Yrotation Xrotation
									End Site
									{
										OFFSET 0.000000 0.000000 0.000000
									}
								}
							}
						}
					}
				}
				JOINT RightShoulder
				{
					OFFSET 0.000000 0.000000 0.000000
					CHANNELS 3 Zrotation Yrotation Xrotation
					JOINT RightArm
					{
						OFFSET -2.700000 1.550000 -0.730000
						CHANNELS 3 Zrotation Yrotation Xrotation
						JOINT RightForeArm
						{
							OFFSET -5.450000 0.000000 0.000000
							CHANNELS 3 Zrotation Yrotation Xrotation
							JOINT RightHand
							{
								OFFSET -3.450000 0.000000 0.000000
								CHANNELS 3 Zrotation Yrotation Xrotation
								JOINT RightHandIndex1
								{
									OFFSET -0.750000 0.000000 0.000000
									CHANNELS 3 Zrotation Yrotation Xrotation
									End Site
									{
										OFFSET 0.000000 0.000000 0.000000
									}
								}
							}
						}
					}
				}
			}
		}
	}
}
MOTION
Frames: 12
Frame Time: 0.016667
0.820780 17.002960 -1.048860 -2.548299 -4.126080 3.613326 -14.934912 13.353953 3.127352 22.981313 -0.661989 -10.140351 -4.580953 5.008612 5.070144 -0.396327 4.980953 3.182716 0.608590 0.147220 0.276420 18.404986 -10.478001 2.950598 -3.409549 0.191651 -5.602137 7.983222 -4.476775 4.077164 -0.546657 -3.742751 3.416314 0.111100 0.451170 0.419850 -4.020726 -2.385826 -7.941115 17.350093 -2.567036 9.969778 -8.972168 -0.225529 -1.492384 3.122125 -4.935190 -11.292385 -11.526533 3.586602 34.168936 -1.328680 0.097160 -8.445370 -16.674016 -6.372867 1.941529 6.599744 1.193398 0.554231 8.825920 -1.121980 -0.948340 -3.981917 2.721991 0.710140 0.254840 -0.026530 0.480210 10.138859 9.950622 9.071276 -1.801176 -8.751616 -1.219634 -12.752310 11.481580 -0.467816 2.018749 -1.540337 -0.210030 0.229650 -0.177660 -0.183590 
0.804910 17.001870 -1.074200 -2.645436 -4.090792 3.672689 -14.937932 13.323851 3.132122 23.169138 -0.654421 -10.405708 -4.626763 5.021066 5.130562 -0.401214 4.985052 3.174299 0.621670 0.159270 0.284730 18.409824 -10.455992 2.962612 -3.187073 0.246003 -5.697502 8.109022 -4.445848 3.880272 -0.552590 -3.734198 3.414365 0.118370 0.444290 0.425860 -4.024868 -2.367196 -7.946974 17.390434 -2.626089 10.167791 -8.993305 -0.228689 -1.272969 3.101369 -4.919078 -11.295727 -11.397248 3.500454 33.778634 -1.311860 0.083230 -8.816300 -16.621919 -6.450509 1.967694 6.629158 1.141483 0.546687 8.918650 -1.177939 -0.952855 -3.975130 2.732702 0.714720 0.251020 -0.020350 0.484430 10.125624 9.993216 9.103989 -1.579643 -8.462003 -1.251618 -12.995073 10.935254 -0.480970 2.026910 -1.547128 -0.206320 0.223980 -0.185400 -0.184700 
0.788690 17.002900 -1.098860 -2.758658 -4.102665 3.766341 -14.935866 13.302497 3.143089 23.349506 -0.645781 -10.653404 -4.645105 5.031597 5.164392 -0.401335 4.980981 3.167553 0.623200 0.163800 0.287230 18.415930 -10.442065 2.972063 -2.924089 0.319836 -5.908203 8.236516 -4.431657 3.878877 -0.550258 -3.709691 3.417766 0.119330 0.436210 0.422820 -4.036991 -2.348640 -7.959012 17.540599 -2.682987 10.379080 -9.154136 -0.187031 -1.240809 3.109856 -4.902369 -11.362044 -11.325422 3.428081 33.608724 -1.288020 0.066150 -9.043500 -16.612211 -6.530691 2.002382 6.529381 1.184942 0.493636 9.459518 -1.431439 -0.942219 -3.967157 2.736533 0.716410 0.244400 -0.016490 0.481740 10.086501 10.074046 9.196678 -1.078106 -8.221205 -1.330766 -13.486883 10.327947 -0.495275 2.043075 -1.546493 -0.204660 0.220870 -0.188010 -0.184990 
0.770620 17.004600 -1.125000 -2.973728 -4.200392 3.813357 -14.933662 13.283939 3.155681 23.632728 -0.627620 -10.793016 -4.574078 5.038525 5.149003 -0.410690 4.996476 3.156051 0.618130 0.156330 0.289160 18.424175 -10.423543 2.977755 -2.521449 0.397322 -6.109120 8.262529 -4.419237 3.975407 -0.543637 -3.678002 3.425571 0.117990 0.430290 0.415660 -4.051483 -2.341560 -7.968875 17.845672 -2.777695 10.651470 -9.348388 -0.155067 -1.131966 3.155865 -4.952187 -11.433612 -11.388603 3.409498 33.434096 -1.464790 0.146460 -9.281920 -16.662492 -6.659730 2.046380 6.752979 1.417123 0.501580 9.387798 -1.715370 -0.944911 -3.957206 2.731066 0.726090 0.239110 -0.016960 0.475150 10.033396 10.237403 9.293070 -1.009765 -8.244025 -1.331585 -13.212727 10.318777 -0.474060 2.041425 -1.536028 -0.213770 0.223450 -0.184010 -0.192550 
0.749360 17.005760 -1.152360 -3.105070 -4.299822 3.849185 -14.934887 13.266870 3.175794 23.875828 -0.617317 -10.865755 -4.597020 5.056693 5.070456 -0.409598 5.025215 3.147664 0.605870 0.138440 0.291400 18.427781 -10.411599 2.971898 -2.155014 0.492052 -6.399769 8.218906 -4.424165 4.293595 -0.530936 -3.636772 3.439344 0.108820 0.433130 0.409720 -4.054222 -2.333178 -7.976359 17.923439 -2.822793 10.856930 -9.409013 -0.117075 -0.885649 3.176148 -4.968071 -11.552368 -11.408752 3.396664 33.321870 -1.637900 0.232480 -9.277660 -16.684686 -6.869985 2.165502 6.801393 1.736945 0.494041 9.508946 -2.129233 -0.947082 -3.954564 2.720634 0.730160 0.239420 -0.020970 0.467150 10.022677 10.460936 9.418774 -0.864342 -8.210532 -1.357661 -13.099093 10.068124 -0.454151 2.046284 -1.521024 -0.222490 0.230450 -0.177090 -0.198420 
0.725620 17.005770 -1.179320 -3.176908 -4.283943 3.858524 -14.939145 13.259342 3.198352 24.087124 -0.613587 -10.939027 -4.648174 5.081990 5.017286 -0.406913 5.059789 3.141787 0.592050 0.115680 0.293090 18.426454 -10.398601 2.965747 -1.814149 0.583513 -6.675085 8.160800 -4.436358 4.644847 -0.518184 -3.597253 3.456488 0.096140 0.442430 0.405810 -4.046426 -2.345250 -7.990207 17.885973 -2.873047 11.102219 -9.398580 -0.094931 -0.752404 3.171999 -4.987347 -11.665320 -11.474114 3.365018 33.311699 -1.820650 0.263620 -9.151910 -16.705119 -7.083228 2.248240 6.990229 1.966005 0.505901 9.263119 -2.607541 -0.954874 -3.953497 2.705459 0.734370 0.243070 -0.026370 0.462250 10.070331 10.681197 9.551471 -0.695728 -8.306370 -1.405357 -13.205096 9.867367 -0.442844 2.048717 -1.507094 -0.232190 0.241290 -0.169450 -0.203030 
0.703220 17.005160 -1.204820 -3.223901 -4.190638 3.840355 -14.947201 13.262238 3.218082 24.267267 -0.613474 -10.968906 -4.689239 5.112025 4.987047 -0.408159 5.098944 3.135392 0.575250 0.084950 0.298180 18.420968 -10.380189 2.959318 -1.513760 0.667200 -6.913614 8.108803 -4.453379 4.976125 -0.506059 -3.557536 3.473911 0.079030 0.450710 0.400170 -4.028387 -2.383358 -8.004245 17.809144 -2.922202 11.309824 -9.296070 -0.090668 -0.531546 3.195817 -5.029690 -11.818715 -11.632456 3.342280 33.425881 -2.104120 0.315360 -9.048370 -16.679926 -7.288765 2.360062 6.799380 2.135107 0.487342 9.320810 -3.205175 -0.968159 -3.954418 2.684521 0.744010 0.244950 -0.032730 0.453060 10.030267 10.916917 9.714375 -0.410120 -8.400113 -1.485911 -13.428666 9.515222 -0.424613 2.052472 -1.487353 -0.245350 0.254770 -0.157560 -0.212540 
0.679970 17.003380 -1.229450 -3.248988 -4.124137 3.860554 -14.955981 13.268745 3.235808 24.383160 -0.622739 -10.939516 -4.720921 5.127092 4.916509 -0.405010 5.125845 3.130503 0.560220 0.062230 0.297380 18.413470 -10.365296 2.951186 -1.252408 0.757914 -7.208741 8.051597 -4.470739 5.357307 -0.493675 -3.518046 3.487263 0.065490 0.455640 0.396690 -4.005750 -2.421515 -8.014736 17.665867 -2.945791 11.505170 -9.196782 -0.078843 -0.380564 3.221034 -5.104522 -11.949983 -11.818058 3.356738 33.410806 -2.268470 0.368110 -8.981700 -16.516617 -7.350628 2.437668 6.386550 2.245093 0.449582 9.499652 -3.938003 -0.977185 -3.950060 2.675598 0.749960 0.244940 -0.036030 0.446050 9.860648 11.050552 9.847137 -0.000886 -8.714297 -1.567818 -13.542146 9.794960 -0.426090 2.048236 -1.476221 -0.253470 0.261530 -0.148280 -0.217140 
0.655800 16.999920 -1.253100 -3.305670 -4.061132 3.911358 -14.959341 13.271225 3.242288 24.492615 -0.624421 -10.879721 -4.783511 5.166290 4.964183 -0.399144 5.150861 3.119099 0.546660 0.047810 0.285520 18.412519 -10.354267 2.947983 -0.974034 0.841254 -7.485350 8.031416 -4.485299 5.677045 -0.481705 -3.487047 3.497275 0.056900 0.458360 0.394620 -4.000506 -2.439319 -8.014783 17.626221 -2.986199 11.622157 -9.167541 -0.084275 -0.284747 3.182931 -5.228294 -12.051141 -12.065327 3.472990 33.333221 -2.175590 0.392350 -8.902380 -16.226674 -7.312195 2.492577 5.923598 2.567857 0.428011 9.448995 -5.330476 -0.980085 -3.932794 2.687317 0.749520 0.244570 -0.039770 0.441230 9.677565 11.112548 9.942980 0.626108 -8.749814 -1.683714 -13.932806 9.756560 -0.436489 2.050082 -1.471949 -0.255640 0.261980 -0.137510 -0.217230 
0.631560 16.994950 -1.275940 -3.352397 -3.938581 4.005516 -14.964090 13.268453 3.244494 24.533452 -0.644103 -10.746373 -4.884089 5.198642 4.966928 -0.393011 5.174332 3.112882 0.538030 0.039820 0.275850 18.411437 -10.348012 2.943518 -0.633024 0.931246 -7.809524 7.901372 -4.479532 6.029403 -0.466980 -3.453864 3.508481 0.053470 0.464910 0.392810 -3.993456 -2.438380 -8.006222 17.531401 -3.001890 11.684059 -9.115032 -0.097930 -0.179627 3.136624 -5.316520 -12.075477 -12.144614 3.494300 32.952254 -2.078460 0.370150 -8.806740 -15.822253 -7.156232 2.480453 5.349077 2.896776 0.390795 9.362093 -7.344229 -0.980098 -3.908573 2.710017 0.744300 0.247930 -0.046510 0.440270 9.388841 11.040691 9.992256 1.232913 -8.733256 -1.733666 -13.932125 9.707753 -0.437787 2.051595 -1.471812 -0.257950 0.262470 -0.131850 -0.215030 
0.608570 16.989160 -1.298690 -3.475846 -3.703142 4.084735 -14.963974 13.265151 3.221915 24.539193 -0.663698 -10.575461 -4.897988 5.233846 5.128373 -0.398234 5.194484 3.108900 0.538870 0.038900 0.275450 18.417207 -10.349427 2.943937 -0.245263 1.024904 -8.115585 7.858856 -4.499368 6.408653 -0.459967 -3.436408 3.509454 0.054460 0.471290 0.398370 -4.004732 -2.410862 -7.977137 17.610961 -3.075091 11.694342 -9.138988 -0.175573 0.044855 3.075409 -5.355979 -11.978840 -12.048667 3.404303 32.336081 -2.193050 0.372090 -9.019810 -15.411563 -6.951196 2.385949 4.961739 3.285744 0.365778 8.817132 -9.989937 -0.961218 -3.876249 2.745157 0.743910 0.252970 -0.050840 0.440110 9.083572 10.829285 9.963481 2.023431 -8.352399 -1.817396 -14.247911 9.225883 -0.453335 2.057116 -1.479769 -0.259230 0.261550 -0.128570 -0.215110 
0.585340 16.984500 -1.321970 -3.569842 -3.409265 4.112729 -14.967090 13.273399 3.205396 24.523627 -0.669836 -10.339716 -5.123027 5.337631 5.441640 -0.403911 5.237914 3.090820 0.537120 0.041060 0.264010 18.418020 -10.354872 2.940099 0.224512 1.123419 -8.444151 7.566198 -4.498335 6.952959 -0.448549 -3.409775 3.513662 0.058190 0.478700 0.404550 -4.004123 -2.396655 -7.952674 17.580545 -3.146717 11.839551 -9.036318 -0.253120 0.087005 2.961702 -5.411094 -11.812561 -11.981449 3.355985 31.738342 -2.231300 0.351860 -9.313230 -15.017458 -6.668884 2.197533 4.660171 3.740852 0.335995 7.842802 -13.327687 -0.881196 -3.840122 2.795147 0.741180 0.259470 -0.056590 0.439510 8.903808 10.552246 9.880863 2.751545 -7.862915 -1.887247 -14.641386 8.466435 -0.450658 2.063837 -1.487839 -0.259050 0.260280 -0.118690 -0.213110 
